<?xml version="1.0" standalone="no"?>
<!DOCTYPE svg PUBLIC "-//W3C//DTD SVG 20010904//EN"
 "http://www.w3.org/TR/2001/REC-SVG-20010904/DTD/svg10.dtd">
<svg version="1.0" xmlns="http://www.w3.org/2000/svg"
 width="250.000000pt" height="263.000000pt" viewBox="0 0 250.000000 263.000000"
 preserveAspectRatio="xMidYMid meet">
<metadata>
Created by potrace 1.15, written by Peter Selinger 2001-2017
</metadata>
<g transform="translate(0.000000,263.000000) scale(0.100000,-0.100000)"
fill="#000000" stroke="none">
<path d="M1310 2393 c-52 -131 -122 -310 -157 -398 -35 -88 -63 -163 -63 -167
0 -9 53 -61 84 -82 15 -9 24 -21 21 -27 -4 -5 -3 -8 2 -7 13 5 83 -74 83 -93
0 -9 7 -20 16 -23 10 -4 14 -12 10 -23 -4 -10 -4 -14 0 -10 10 9 35 -43 27
-56 -3 -5 -1 -7 5 -3 11 6 35 -50 37 -89 1 -11 4 -27 7 -35 22 -56 26 -238 7
-286 -6 -16 -13 -48 -15 -71 -3 -47 -11 -66 -25 -58 -5 3 -6 -1 -3 -10 4 -9
-1 -24 -11 -35 -9 -10 -14 -23 -11 -28 3 -5 -1 -15 -9 -22 -8 -7 -15 -19 -15
-26 0 -8 -7 -14 -15 -14 -8 0 -15 -8 -15 -18 0 -20 -33 -56 -43 -46 -3 3 -4
-2 -3 -13 3 -16 14 -18 112 -17 94 1 119 5 179 29 39 15 77 35 87 44 9 9 50
90 92 180 41 90 76 165 78 167 5 4 614 160 701 179 15 3 27 10 27 15 0 7 -154
9 -441 8 l-440 -3 -34 -90 c-19 -49 -63 -169 -99 -265 l-65 -175 -1 903 c0
496 -4 902 -8 902 -5 0 -50 -107 -102 -237z"/>
<path d="M1134 2294 c-227 -38 -451 -170 -594 -350 -141 -177 -210 -354 -226
-583 l-7 -94 49 7 c47 7 246 48 309 64 28 7 30 11 42 90 20 127 68 219 167
317 54 54 101 90 143 110 l61 30 81 202 c45 112 81 207 81 213 0 12 -2 12
-106 -6z"/>
<path d="M1450 2106 l0 -193 32 -7 c64 -13 178 -79 247 -142 l68 -63 131 130
c73 72 132 135 132 139 0 5 -24 30 -52 56 -150 135 -313 223 -481 259 -38 8
-70 15 -73 15 -2 0 -4 -87 -4 -194z"/>
<path d="M1734 871 c-102 -97 -233 -157 -366 -168 l-68 -6 0 -31 c0 -17 -5
-49 -11 -71 -6 -22 -12 -50 -14 -62 -5 -34 -55 -134 -83 -168 l-25 -30 29 -6
c134 -29 405 15 552 90 98 50 295 200 308 235 3 7 -55 72 -128 144 -72 73
-132 132 -132 132 -1 -1 -29 -27 -62 -59z"/>
<path d="M1218 149 c-2 -95 1 -149 7 -149 10 0 141 278 134 284 -2 2 -34 6
-71 8 l-67 6 -3 -149z"/>
</g>
</svg>
